<svg width="41" height="39" viewBox="0 0 41 39" fill="none" xmlns="http://www.w3.org/2000/svg">
<path d="M39.7239 4.72875C39.9633 4.9572 40.0977 5.26662 40.0977 5.58919C40.0977 5.91176 39.9633 6.22118 39.7239 6.44962L37.0512 8.99438L31.9262 4.11938L34.5989 1.57463C34.8391 1.34614 35.165 1.21779 35.5047 1.21779C35.8445 1.21779 36.1703 1.34614 36.4106 1.57463L39.7239 4.72631V4.72875ZM35.2395 10.7153L30.1145 5.84025L12.6562 22.4494C12.5152 22.5835 12.409 22.7471 12.3461 22.9271L10.2833 28.8112C10.2459 28.9185 10.2406 29.0336 10.268 29.1436C10.2953 29.2535 10.3543 29.3541 10.4384 29.434C10.5224 29.5139 10.6281 29.57 10.7437 29.5961C10.8593 29.6221 10.9803 29.6171 11.0931 29.5815L17.2789 27.6193C17.468 27.5602 17.6399 27.4601 17.7812 27.3268L35.2395 10.7153Z" fill="#687AFB"/>
<path fill-rule="evenodd" clip-rule="evenodd" d="M2.5625 32.9062C2.5625 33.8759 2.96747 34.8059 3.68831 35.4916C4.40915 36.1773 5.38682 36.5625 6.40625 36.5625H34.5938C35.6132 36.5625 36.5908 36.1773 37.3117 35.4916C38.0325 34.8059 38.4375 33.8759 38.4375 32.9062V18.2812C38.4375 17.958 38.3025 17.648 38.0622 17.4195C37.822 17.1909 37.4961 17.0625 37.1562 17.0625C36.8164 17.0625 36.4905 17.1909 36.2503 17.4195C36.01 17.648 35.875 17.958 35.875 18.2812V32.9062C35.875 33.2295 35.74 33.5395 35.4997 33.768C35.2595 33.9966 34.9336 34.125 34.5938 34.125H6.40625C6.06644 34.125 5.74055 33.9966 5.50027 33.768C5.25999 33.5395 5.125 33.2295 5.125 32.9062V6.09375C5.125 5.77052 5.25999 5.46052 5.50027 5.23196C5.74055 5.0034 6.06644 4.875 6.40625 4.875H23.0625C23.4023 4.875 23.7282 4.7466 23.9685 4.51804C24.2088 4.28948 24.3438 3.97948 24.3438 3.65625C24.3438 3.33302 24.2088 3.02302 23.9685 2.79446C23.7282 2.5659 23.4023 2.4375 23.0625 2.4375H6.40625C5.38682 2.4375 4.40915 2.82271 3.68831 3.50839C2.96747 4.19407 2.5625 5.12405 2.5625 6.09375V32.9062Z" fill="#687AFB"/>
</svg>
