<svg width="75" height="57" viewBox="0 0 75 57" fill="none" xmlns="http://www.w3.org/2000/svg">
<path d="M37.5 9C38.1216 9 38.7177 9.21071 39.1573 9.58579C39.5968 9.96086 39.8438 10.4696 39.8438 11V23H53.9062C54.5279 23 55.124 23.2107 55.5635 23.5858C56.0031 23.9609 56.25 24.4696 56.25 25C56.25 25.5304 56.0031 26.0391 55.5635 26.4142C55.124 26.7893 54.5279 27 53.9062 27H39.8438V39C39.8438 39.5304 39.5968 40.0391 39.1573 40.4142C38.7177 40.7893 38.1216 41 37.5 41C36.8784 41 36.2823 40.7893 35.8427 40.4142C35.4032 40.0391 35.1562 39.5304 35.1562 39V27H21.0938C20.4721 27 19.876 26.7893 19.4365 26.4142C18.9969 26.0391 18.75 25.5304 18.75 25C18.75 24.4696 18.9969 23.9609 19.4365 23.5858C19.876 23.2107 20.4721 23 21.0938 23H35.1562V11C35.1562 10.4696 35.4032 9.96086 35.8427 9.58579C36.2823 9.21071 36.8784 9 37.5 9Z" fill="#DDDDDF"/>
</svg>
